<?xml version="1.0" standalone="no"?>
<!DOCTYPE svg PUBLIC "-//W3C//DTD SVG 20010904//EN"
 "http://www.w3.org/TR/2001/REC-SVG-20010904/DTD/svg10.dtd">
<svg version="1.0" xmlns="http://www.w3.org/2000/svg"
 width="1024.000000pt" height="1024.000000pt" viewBox="0 0 1024.000000 1024.000000"
 preserveAspectRatio="xMidYMid meet">
<metadata>
Created by potrace 1.14, written by Peter Selinger 2001-2017
</metadata>
<g transform="translate(0.000000,1024.000000) scale(0.100000,-0.100000)"
fill="#000000" stroke="none">
<path d="M0 5120 l0 -5120 5120 0 5120 0 0 5120 0 5120 -5120 0 -5120 0 0
-5120z m5550 2781 c30 -114 115 -277 179 -343 30 -33 32 -38 15 -38 -11 0 -25
-5 -32 -12 -7 -7 -12 -9 -12 -6 0 10 -133 -37 -164 -57 -18 -12 -24 -21 -17
-28 6 -6 53 7 137 38 l128 48 58 -15 c49 -14 67 -14 111 -4 29 7 57 15 63 18
5 3 38 1 74 -6 l65 -11 -103 -77 c-130 -98 -140 -101 -193 -53 -55 49 -99 66
-173 66 -135 0 -220 -46 -231 -125 l-6 -41 -55 3 c-44 3 -58 9 -76 30 -28 33
-72 62 -93 62 -18 0 -19 10 -2 34 16 22 51 11 44 -15 -11 -42 33 3 62 64 24
47 36 94 51 196 11 74 21 136 24 138 10 11 39 -302 33 -362 -3 -30 -4 -55 -2
-55 3 0 12 15 22 33 14 27 17 52 13 152 -7 187 -2 284 16 339 25 77 48 86 64
27z m-245 -378 c-7 -86 -24 -127 -45 -107 -9 9 -5 39 17 124 30 121 39 116 28
-17z m1211 89 c62 -49 78 -170 34 -255 -28 -56 -107 -133 -151 -149 -35 -12
-51 -46 -69 -145 -11 -63 -10 -85 9 -202 l22 -131 -68 -101 c-132 -196 -175
-281 -204 -405 -6 -27 -20 -77 -30 -110 -11 -34 -25 -117 -32 -185 -12 -121
-13 -124 -37 -127 -23 -3 -50 -26 -50 -43 0 -4 23 -15 51 -24 l51 -17 -7 -61
c-11 -102 -45 -147 -111 -147 -49 0 -66 -16 -32 -29 13 -4 177 -11 365 -14
251 -5 348 -10 363 -19 18 -12 20 -21 18 -88 -3 -69 -5 -76 -28 -87 -28 -13
-231 -15 -563 -6 -181 5 -197 6 -185 22 12 14 11 15 -5 2 -16 -13 -201 -14
-1290 -13 -700 1 -1543 -3 -1875 -9 -477 -9 -608 -9 -632 1 -29 12 -30 14 -30
86 0 112 -21 106 408 115 197 4 581 8 855 8 334 1 496 4 492 11 -4 6 -35 243
-69 528 -73 593 -73 572 12 573 26 0 301 8 612 18 l565 18 21 -25 c16 -19 24
-51 33 -121 10 -82 53 -456 91 -791 14 -122 17 -128 34 -104 8 10 12 22 9 27
-2 4 10 32 27 63 36 62 133 141 184 148 17 3 78 13 136 22 107 16 189 14 252
-8 24 -9 33 -8 36 0 6 20 42 14 42 -7 0 -11 9 -23 21 -26 26 -9 28 -7 30 40 2
46 36 411 44 468 7 48 31 98 47 94 6 -1 18 15 26 37 13 32 14 47 3 99 -7 34
-18 71 -24 82 -6 11 -10 23 -9 28 4 13 -24 7 -76 -18 -57 -28 -119 -40 -154
-32 -25 7 -348 317 -348 334 0 6 11 31 25 54 18 33 25 59 25 102 0 35 4 57 11
57 8 0 8 4 0 14 -9 10 -8 15 4 19 22 9 7 36 -24 44 -26 7 -25 7 9 14 42 9 70
-12 102 -76 76 -148 184 -216 298 -185 93 25 146 114 138 235 -4 59 -2 64 20
75 13 5 80 54 150 107 69 54 133 99 143 100 13 2 19 -10 28 -54 6 -31 11 -74
11 -95 0 -57 15 -39 29 34 17 85 58 187 89 221 31 32 94 37 128 9z m-762 -223
c22 -6 56 -28 80 -53 36 -35 45 -53 55 -104 10 -53 10 -71 -3 -115 -9 -29 -22
-59 -29 -68 -37 -49 -140 -63 -212 -30 -47 21 -125 105 -125 133 0 11 -7 26
-15 35 -9 8 -13 18 -10 21 3 4 10 0 15 -8 8 -13 10 -12 10 3 0 9 -7 17 -15 17
-39 0 -29 109 13 139 54 38 158 52 236 30z m-479 -100 c43 -38 44 -47 5 -41
-21 3 -35 13 -45 33 -27 50 -12 53 40 8z m16 -115 c6 -8 24 -14 40 -14 28 0
29 -1 29 -55 0 -56 -18 -117 -39 -129 -15 -10 -29 30 -40 121 -6 43 -13 94
-16 113 -5 32 -4 33 4 7 5 -16 15 -35 22 -43z m1979 -1119 c191 -60 349 -199
409 -362 33 -90 33 -269 -1 -306 -17 -20 -29 -95 -16 -103 4 -3 8 -10 8 -15 0
-6 -5 -7 -10 -4 -7 4 -9 -3 -5 -22 5 -19 4 -24 -3 -14 -8 11 -11 9 -17 -8 -3
-11 -3 -31 0 -42 5 -16 4 -19 -5 -14 -10 6 -11 1 -6 -19 5 -20 3 -26 -5 -21
-8 5 -9 1 -4 -15 5 -14 3 -20 -3 -16 -13 8 -63 -139 -55 -161 5 -12 3 -14 -6
-8 -10 6 -11 2 -6 -15 4 -14 3 -20 -3 -16 -13 8 -24 -22 -16 -47 4 -14 3 -17
-6 -12 -9 5 -10 1 -5 -15 5 -16 4 -20 -5 -15 -9 5 -10 1 -5 -15 5 -16 4 -20
-5 -15 -9 5 -10 2 -6 -12 5 -15 1 -19 -25 -21 -27 -2 -84 9 -123 24 -9 3 -21
-17 -36 -58 -24 -66 -80 -265 -80 -284 0 -7 29 -17 65 -24 36 -7 65 -17 65
-23 0 -8 3 -8 11 0 5 5 21 8 35 5 27 -5 30 -27 17 -155 l-6 -69 -23 29 c-17
20 -23 41 -24 76 0 58 -14 63 -17 6 0 -23 -5 -44 -10 -48 -4 -3 -8 -13 -8 -21
-1 -46 -19 -129 -26 -124 -5 3 -7 -25 -3 -68 4 -53 3 -69 -5 -58 -8 12 -11 8
-11 -18 0 -39 -13 -46 -68 -34 -49 12 -134 4 -125 -11 4 -6 -3 -8 -18 -4 -13
4 -35 7 -48 7 -20 0 -21 2 -11 15 7 8 25 15 40 15 27 0 28 3 35 60 4 33 18 81
30 107 28 53 32 75 45 243 7 89 25 191 64 355 30 127 71 297 90 380 66 275 66
419 1 592 -34 88 -106 182 -142 183 -29 0 -41 45 -42 146 l0 101 27 -4 c15 -3
61 -16 102 -28z m-72 -307 c2 -20 -2 -28 -18 -33 -29 -9 -43 6 -34 39 9 37 48
33 52 -6z m52 -83 c0 -1 -5 -16 -10 -32 -9 -25 -16 -30 -40 -29 -33 1 -33 1
-24 43 5 26 9 28 40 25 19 -2 34 -5 34 -7z m-21 -106 c28 -10 32 -15 29 -43
-3 -27 -7 -31 -35 -34 -33 -3 -33 -3 -33 42 0 25 2 46 4 46 1 0 17 -5 35 -11z
m81 -160 c0 -38 -1 -39 -35 -39 -32 0 -35 2 -35 29 0 48 8 58 40 53 27 -4 30
-8 30 -43z m-127 29 c-2 -5 -3 -21 -3 -38 0 -25 -4 -30 -25 -30 -26 0 -31 13
-19 58 5 16 13 22 28 20 11 -2 20 -6 19 -10z m-63 -115 c0 -5 -5 -15 -10 -23
-8 -12 -10 -11 -10 8 0 12 5 22 10 22 6 0 10 -3 10 -7z m120 -48 c0 -32 -2
-35 -30 -35 -28 0 -30 3 -30 35 0 32 2 35 30 35 28 0 30 -3 30 -35z m-72 -112
c3 -28 0 -33 -17 -33 -14 0 -21 6 -21 19 0 11 -3 27 -6 36 -5 13 -2 16 17 13
19 -2 25 -10 27 -35z m110 -5 c-2 -25 -9 -33 -30 -39 -30 -8 -31 -7 -22 40 5
24 12 31 31 31 21 0 24 -4 21 -32z m-3586 -25 c-112 -2 -292 -2 -400 0 -108 1
-17 2 203 2 220 0 309 -1 197 -2z m678 -40 c0 -34 -3 -38 -28 -40 -32 -1 -55
15 -48 33 3 7 1 16 -5 19 -19 12 3 25 42 25 38 0 39 -1 39 -37z m1705 15 c12
-54 25 -212 25 -316 0 -111 0 -112 -22 -107 -130 29 -128 29 -128 11 0 -16 8
-19 95 -36 292 -58 492 -195 590 -405 53 -113 67 -210 44 -301 l-11 -44 -122
2 -121 1 105 7 c58 4 108 8 112 9 3 0 13 23 21 50 13 45 13 59 -6 153 -19 99
-23 107 -89 201 -39 53 -74 97 -80 97 -5 0 -23 9 -39 21 -49 34 -125 50 -204
43 -38 -4 -218 -8 -400 -9 -275 -1 -338 -4 -377 -18 -27 -9 -48 -14 -48 -12 0
2 8 23 19 47 13 32 33 53 72 79 96 64 108 68 304 97 l50 7 0 155 c0 85 -4 185
-8 223 l-8 67 111 0 c105 0 110 -1 115 -22z m1135 -72 c0 -14 -8 -32 -17 -41
-16 -16 -17 -16 -30 1 -7 10 -13 28 -13 41 0 19 5 23 30 23 25 0 30 -4 30 -24z
m-2870 -80 c0 -11 -19 -15 -25 -6 -3 5 1 10 9 10 9 0 16 -2 16 -4z m2875 -58
c-9 -40 -16 -50 -33 -39 -20 12 -4 71 20 71 17 0 19 -5 13 -32z m-2850 -106
c-3 -3 -11 0 -18 7 -9 10 -8 11 6 5 10 -3 15 -9 12 -12z m1465 -68 c0 -20 -30
-30 -41 -13 -6 9 -3 18 8 26 18 14 33 8 33 -13z m1568 -775 c4 -63 -18 -81
-101 -83 -45 -1 -73 -8 -100 -23 -36 -22 -37 -22 -47 -3 -13 24 -6 28 73 36
38 4 67 12 67 18 0 6 4 5 9 -3 7 -11 14 -4 30 27 12 23 21 48 21 57 0 9 5 13
10 10 6 -3 10 -1 10 5 0 7 6 10 13 8 6 -3 13 -25 15 -49z m-998 -49 c22 -7 21
-8 -12 -9 -20 -1 -40 4 -43 9 -7 12 19 12 55 0z m205 -10 c4 -6 -11 -10 -39
-10 -25 0 -48 5 -51 10 -4 6 11 10 39 10 25 0 48 -4 51 -10z m-432 -112 c-3
-70 -1 -68 -35 -68 -56 0 -63 11 -38 59 18 36 25 42 48 39 21 -2 26 -8 25 -30z
m136 11 c36 -11 40 -19 32 -79 0 -5 -21 -10 -46 -10 -47 0 -52 6 -56 65 -3 40
6 43 70 24z m1064 -1 c2 -7 0 -22 -6 -33 -6 -11 -10 -32 -9 -47 2 -22 -2 -28
-17 -28 -15 0 -20 9 -23 45 -3 41 -1 45 19 45 13 0 23 5 23 11 0 5 -4 7 -10 4
-5 -3 -10 -1 -10 4 0 15 27 14 33 -1z m-928 -6 c16 -11 15 -72 -1 -72 -8 0
-17 -1 -21 -2 -5 -2 -13 13 -19 32 -10 30 -9 36 5 42 21 9 24 9 36 0z m119
-31 c1 -57 -36 -51 -47 7 -6 32 -5 33 20 30 23 -3 27 -8 27 -37z m108 27 c8
-22 -4 -58 -18 -58 -13 0 -18 12 -15 33 0 4 -3 7 -9 7 -5 0 -10 7 -10 15 0 18
46 21 52 3z m94 -14 c-4 -9 -2 -22 4 -29 14 -16 -2 -28 -25 -19 -8 4 -15 14
-13 23 1 9 -1 22 -5 29 -6 8 0 12 18 12 21 0 26 -4 21 -16z m96 -4 c0 -11 1
-25 2 -32 2 -23 -21 -18 -32 7 -17 36 -15 45 8 45 13 0 21 -7 22 -20z m261 14
c10 -4 12 -14 8 -36 -9 -43 -28 -46 -34 -6 -6 45 -1 53 26 42z m-167 -11 c-10
-11 -36 -12 -36 -2 0 5 10 9 22 9 12 0 18 -3 14 -7z m84 -8 c-12 -15 -30 -12
-30 6 0 5 10 9 21 9 18 0 19 -2 9 -15z m170 -20 c0 -19 -4 -35 -10 -35 -5 0
-10 6 -10 13 0 6 -3 22 -6 35 -5 16 -2 22 10 22 12 0 16 -9 16 -35z m73 -4
c-2 -59 -20 -57 -27 3 -4 31 -2 37 12 34 12 -3 17 -13 15 -37z m-323 0 c0 -5
-7 -11 -15 -15 -9 -3 -15 0 -15 9 0 8 7 15 15 15 8 0 15 -4 15 -9z m80 -5 c0
-3 -4 -8 -10 -11 -5 -3 -10 -1 -10 4 0 6 5 11 10 11 6 0 10 -2 10 -4z m-524
-101 c2 -20 -3 -25 -23 -25 -20 0 -23 3 -14 13 8 10 7 17 -1 25 -9 9 -6 12 13
12 19 0 24 -6 25 -25z m205 12 c-1 -12 -15 -9 -19 4 -3 6 1 10 8 8 6 -3 11 -8
11 -12z m89 -13 c0 -8 -4 -14 -9 -14 -11 0 -22 26 -14 34 9 9 23 -3 23 -20z
m103 5 c-6 -6 -17 -8 -24 -3 -9 5 -8 9 7 14 23 9 31 3 17 -11z m-829 5 c12 -4
13 -11 6 -24 -5 -9 -6 -20 -3 -24 9 -9 -40 -7 -53 2 -6 4 -13 17 -16 30 -5 19
-2 22 22 22 16 0 35 -3 44 -6z m312 -20 c2 -19 -2 -24 -13 -20 -8 3 -17 6 -19
6 -2 0 -4 9 -4 20 0 31 35 26 36 -6z m224 16 c0 -5 -7 -10 -16 -10 -8 0 -12 5
-9 10 3 6 10 10 16 10 5 0 9 -4 9 -10z m470 2 c0 -13 -12 -22 -22 -16 -10 6
-1 24 13 24 5 0 9 -4 9 -8z m-843 -37 c0 -23 -5 -35 -14 -35 -8 0 -11 5 -8 10
3 6 -2 10 -12 10 -15 0 -16 2 -3 10 12 8 11 10 -7 10 -14 0 -23 6 -23 15 0 10
10 15 33 15 32 0 34 -2 34 -35z m930 29 c-3 -3 -12 -4 -19 -1 -8 3 -5 6 6 6
11 1 17 -2 13 -5z m138 -14 c3 -5 2 -10 -4 -10 -5 0 -13 5 -16 10 -3 6 -2 10
4 10 5 0 13 -4 16 -10z m-1395 -15 c-14 -16 -50 -21 -50 -6 0 9 20 17 49 20
11 1 11 -2 1 -14z m1327 -1 c-3 -3 -12 -4 -19 -1 -8 3 -5 6 6 6 11 1 17 -2 13
-5z m-887 -76 c-4 -49 -5 -50 -8 -14 -3 34 2 66 10 66 2 0 1 -24 -2 -52z m-26
33 c4 -5 -4 -7 -15 -4 -21 6 -21 5 -15 -114 6 -125 11 -153 28 -153 6 0 8 -14
4 -36 -5 -21 -3 -41 4 -49 8 -9 10 -74 8 -204 -2 -153 -6 -193 -18 -204 -9 -8
-46 -17 -86 -20 l-71 -6 -13 42 c-7 23 -28 73 -47 111 -19 38 -36 77 -38 87
-2 9 -33 72 -69 139 -35 66 -69 142 -75 168 l-9 47 49 -55 c27 -30 56 -67 64
-82 9 -16 20 -28 25 -28 5 0 24 -31 43 -70 19 -38 37 -67 42 -62 5 4 5 2 2 -4
-8 -14 46 -138 56 -128 5 6 2 248 -7 487 -1 41 2 57 11 57 7 0 13 9 13 21 0
11 4 18 9 14 6 -3 15 3 21 12 8 13 13 14 16 6 9 -22 24 -14 24 12 0 18 5 25
19 25 11 0 22 -4 25 -9z m-1006 -238 c-6 -7 -14 -13 -19 -13 -13 0 -11 34 3
48 10 10 14 9 19 -5 4 -10 2 -24 -3 -30z m1039 -365 c-1 -73 -3 -14 -3 132 0
146 2 205 3 133 2 -73 2 -193 0 -265z m-1457 -59 c0 -11 4 -19 9 -19 5 0 18
-16 30 -35 l20 -35 -37 0 c-57 0 -64 8 -56 73 6 47 9 55 20 46 8 -6 14 -20 14
-30z m590 -237 c0 -15 -2 -15 -10 -2 -13 20 -13 33 0 25 6 -3 10 -14 10 -23z
m640 8 c10 -5 21 -21 24 -34 6 -24 8 -25 71 -19 l65 6 0 -54 c1 -114 11 -287
20 -364 13 -100 10 -124 -13 -131 -17 -5 -17 -7 -2 -18 21 -15 31 -196 12
-208 -17 -11 -55 -10 -62 1 -7 13 -12 81 -25 383 -6 145 -14 270 -17 278 -3 8
-6 24 -6 35 0 16 -1 17 -4 3 -3 -10 -9 -18 -14 -18 -14 0 -53 23 -62 38 -4 6
-18 12 -31 12 -17 0 -25 7 -28 25 -3 14 -1 25 4 25 5 0 16 7 24 15 14 13 13
15 -3 15 -15 0 -16 2 -3 10 19 12 27 12 50 0z m-1209 -15 l65 -7 11 -39 c9
-34 8 -39 -8 -44 -11 -4 -27 -4 -37 -1 -16 5 -21 -2 -30 -46 -6 -29 -14 -69
-17 -88 -10 -63 -18 -68 -69 -42 -26 12 -46 27 -46 34 0 7 9 62 20 122 11 60
20 114 20 119 0 5 6 7 13 4 8 -3 43 -8 78 -12z m539 11 c0 -2 11 -29 25 -59
31 -71 15 -85 -20 -18 -26 53 -32 81 -15 81 6 0 10 -2 10 -4z m-402 -59 c11
-8 11 -12 0 -18 -26 -17 -48 -10 -48 16 0 19 4 23 18 18 9 -3 23 -11 30 -16z
m969 -14 c-3 -10 -5 -4 -5 12 0 17 2 24 5 18 2 -7 2 -21 0 -30z m10 -60 c-3
-10 -5 -4 -5 12 0 17 2 24 5 18 2 -7 2 -21 0 -30z m1400 15 c-3 -8 -6 -5 -6 6
-1 11 2 17 5 13 3 -3 4 -12 1 -19z m-2480 -50 c-3 -7 -5 -2 -5 12 0 14 2 19 5
13 2 -7 2 -19 0 -25z m606 -97 c17 -7 27 -23 37 -58 13 -48 30 -79 30 -54 0 7
5 11 12 9 19 -7 58 59 58 96 l0 33 103 16 c56 9 114 19 129 22 24 5 28 1 34
-22 9 -37 52 -134 69 -153 13 -15 39 -253 40 -365 l0 -60 -85 -13 c-47 -7
-182 -15 -300 -18 l-215 -4 -55 76 c-67 93 -257 289 -324 334 l-49 33 24 17
c12 10 41 23 63 30 22 7 55 23 73 37 18 14 33 20 33 15 0 -6 7 -9 15 -6 11 5
14 15 10 38 -6 31 -6 31 62 55 37 12 88 33 113 45 l45 22 27 -58 c18 -37 36
-61 51 -67z m-616 47 c-3 -7 -5 -2 -5 12 0 14 2 19 5 13 2 -7 2 -19 0 -25z
m-10 -50 c-3 -8 -6 -5 -6 6 -1 11 2 17 5 13 3 -3 4 -12 1 -19z m-298 -39 c13
-8 11 -9 -9 -4 -14 3 -99 9 -190 13 -96 4 -146 9 -120 12 63 7 299 -8 319 -21z
m-392 5 c-3 -3 -12 -4 -19 -1 -8 3 -5 6 6 6 11 1 17 -2 13 -5z m443 -14 c0 -5
-7 -10 -16 -10 -8 0 -12 5 -9 10 3 6 10 10 16 10 5 0 9 -4 9 -10z m111 -18
c-7 -2 -18 1 -23 6 -8 8 -4 9 13 5 13 -4 18 -8 10 -11z m-74 2 c-3 -3 -12 -4
-19 -1 -8 3 -5 6 6 6 11 1 17 -2 13 -5z m103 -31 l25 -14 -25 7 c-14 4 -41 13
-60 20 l-35 14 35 -6 c19 -4 46 -13 60 -21z m1537 5 c-3 -8 -6 -5 -6 6 -1 11
2 17 5 13 3 -3 4 -12 1 -19z m-1554 -44 c28 -10 47 -22 47 -31 0 -11 6 -14 22
-10 49 13 214 -103 398 -281 l105 -101 -52 -1 c-47 0 -53 2 -53 20 0 19 -4 20
-54 14 -84 -10 -319 -10 -441 0 -60 5 -132 9 -160 10 l-50 1 -3 38 c-2 20 7
67 19 105 25 72 58 112 118 140 31 15 37 24 44 65 5 26 10 47 11 47 1 0 23 -7
49 -16z m2705 -389 c-3 -3 -9 2 -12 12 -6 14 -5 15 5 6 7 -7 10 -15 7 -18z"/>
<path d="M5384 5661 c-32 -20 -52 -41 -37 -41 25 1 99 23 111 33 12 9 11 12
-5 18 -28 12 -36 10 -69 -10z"/>
<path d="M5146 5532 c-29 -12 -42 -13 -56 -4 -15 9 -19 7 -23 -16 -3 -15 -4
-28 -3 -29 1 -2 173 -3 382 -3 335 -1 379 1 382 14 3 14 -32 16 -307 16 -301
0 -310 1 -316 20 -7 23 -8 23 -59 2z"/>
<path d="M5730 7295 c-59 -19 -88 -34 -94 -52 -3 -8 -2 -12 3 -9 5 3 11 0 14
-8 9 -22 76 -29 122 -13 41 15 47 30 31 69 -6 12 -2 18 16 21 15 3 12 5 -12 5
-19 0 -55 -6 -80 -13z m-30 -41 c0 -8 -4 -12 -10 -9 -5 3 -10 10 -10 16 0 5 5
9 10 9 6 0 10 -7 10 -16z"/>
<path d="M7241 5912 c54 -35 112 -100 144 -163 39 -75 74 -200 74 -259 0 -78
-17 -250 -35 -354 -8 -48 -13 -95 -10 -103 3 -8 2 -12 -2 -9 -5 3 -18 -36 -30
-87 -25 -103 -27 -121 -12 -112 6 4 8 16 4 27 -4 15 -3 18 7 13 9 -6 11 -2 7
13 -4 12 -3 20 2 17 12 -7 117 302 151 442 33 137 37 231 14 307 -36 118 -151
224 -300 278 -65 24 -67 23 -14 -10z"/>
<path d="M7351 4794 c0 -11 3 -14 6 -6 3 7 2 16 -1 19 -3 4 -6 -2 -5 -13z"/>
<path d="M6108 2603 c7 -3 16 -2 19 1 4 3 -2 6 -13 5 -11 0 -14 -3 -6 -6z"/>
<path d="M5220 2325 c-10 -13 -9 -15 8 -15 15 0 20 5 16 15 -4 8 -7 15 -9 15
-1 0 -8 -7 -15 -15z"/>
<path d="M5773 2333 c4 -3 0 -14 -8 -23 -14 -16 -14 -18 5 -23 11 -3 20 -1 20
4 0 5 -6 9 -12 9 -7 1 -3 6 10 13 23 13 20 27 -6 27 -9 0 -12 -3 -9 -7z"/>
</g>
</svg>
